<?xml version="1.0" encoding="UTF-8"?>
<svg width="80px" height="48px" viewBox="0 0 80 48" version="1.1" xmlns="http://www.w3.org/2000/svg" xmlns:xlink="http://www.w3.org/1999/xlink">
    <title>编组</title>
    <defs>
        <polygon id="path-1" points="0.132777273 0.016302301 20.8692273 0.016302301 20.8692273 19.6735043 0.132777273 19.6735043"></polygon>
        <polygon id="path-3" points="0.1478 0.259641944 22.87005 0.259641944 22.87005 9.32056573 0.1478 9.32056573"></polygon>
    </defs>
    <g id="页面-1" stroke="none" stroke-width="1" fill="none" fill-rule="evenodd">
        <g id="客户追踪" transform="translate(-47.000000, -8.000000)">
            <g id="编组" transform="translate(47.000000, 8.000000)">
                <path d="M6.99279766,41.4798342 C6.99279766,42.0021661 6.76356465,42.264837 6.30609205,42.2678468 L4.13893356,42.2637425 C3.65935724,42.2689412 3.41795476,42.4024656 3.41273927,42.6634948 C3.41994161,42.9119376 3.66308258,43.0350646 4.14241056,43.0320548 L4.84327249,43.0320548 C6.27380571,43.0369799 6.99279766,43.6999502 7,45.0195977 C7,46.303128 6.28200147,46.9483133 4.84699784,46.9565217 L2.70840035,46.9565217 C2.23403951,46.953512 1.99810087,46.6974079 2.00008772,46.1879358 C2.00281964,45.6677928 2.23652307,45.410047 2.70119801,45.4157929 L4.84699784,45.4040275 C5.32632581,45.4010177 5.56574144,45.2663989 5.56574144,44.9998974 C5.56574144,44.7333959 5.32384224,44.6012396 4.8397955,44.6042494 L4.13893356,44.6042494 C2.71287076,44.6012396 2.00008772,43.9546862 2.00008772,42.6634948 C1.99089853,41.353971 2.70368157,40.6986619 4.13893356,40.6956522 L6.28100804,40.6956522 C6.75065011,40.6986619 6.98758218,40.9594175 6.99279766,41.4798342" id="Fill-1" fill="#FFFFFF"></path>
                <path d="M14,41.4847935 L13.996261,46.1754823 C13.996261,46.7010314 13.7569682,46.9616252 13.2783824,46.956446 C12.8025385,46.9588993 12.5652397,46.7010314 12.5677323,46.1831148 L12.5677323,44.6091935 L11.5178348,44.6132823 C11.029777,44.6132823 10.7822584,44.354324 10.7750297,43.8361349 C10.7772731,43.3124939 11.0252902,43.0521727 11.5178348,43.0548986 L12.5677323,43.0431773 L12.5677323,41.4847935 C12.5677323,40.9589719 12.8070252,40.6956522 13.285611,40.6956522 C13.7597101,40.6956522 13.9975074,40.9589719 14,41.4847935 M10.4322925,41.4888823 L10.4285536,46.1754823 C10.4260609,46.6909456 10.186768,46.9515395 9.71067489,46.956446 C9.23458174,46.9537202 8.99803074,46.6947619 9.00001235,46.1795712 L9.00001235,41.4926986 C9.00001235,40.9720561 9.23832069,40.7087364 9.71441384,40.7038298 C10.1929996,40.7065557 10.4322925,40.9679673 10.4322925,41.4888823" id="Fill-3" fill="#FFFFFF"></path>
                <path d="M16.2639191,42.4533574 C16.0257907,42.5876417 15.8391566,42.7803342 15.7042781,43.0322538 C15.5691383,43.2836275 15.5019604,43.5461915 15.5019604,43.8202188 C15.5019604,44.0912439 15.5680927,44.3502598 15.7006186,44.5980853 C15.8326218,44.8459108 16.0184717,45.0391492 16.2568615,45.1769817 C16.49499,45.3150871 16.7440969,45.3841398 17.0039209,45.3841398 C17.2632221,45.3841398 17.5125904,45.3150871 17.7507188,45.1769817 C17.98937,45.0391492 18.1744358,44.8459108 18.3069617,44.5980853 C18.4394877,44.3502598 18.5056199,44.0912439 18.5056199,43.8202188 C18.5056199,43.5461915 18.4381807,43.2836275 18.3030409,43.0322538 C18.1686852,42.7803342 17.9810055,42.5876417 17.7415701,42.4533574 C17.5018733,42.3188001 17.2556417,42.2519309 17.0039209,42.2519309 C16.7490633,42.2519309 16.5025704,42.3188001 16.2639191,42.4533574 M16.9963405,40.6956522 C17.5008277,40.6956522 17.991984,40.8304824 18.4700706,41.1004157 C18.9484186,41.370349 19.322471,41.756007 19.5932735,42.2573896 C19.864076,42.7595911 20,43.2830816 20,43.827861 C20,44.3699111 19.8679969,44.8895805 19.6047748,45.3860503 C19.3412913,45.8830661 18.9714211,46.268724 18.4943801,46.5435702 C18.017339,46.8186893 17.5180796,46.9565217 16.9963405,46.9565217 C16.4793064,46.9565217 15.9829224,46.8186893 15.5056199,46.5435702 C15.0285789,46.268724 14.6587087,45.8830661 14.3954866,45.3860503 C14.1320031,44.8895805 14,44.3699111 14,43.827861 C14,43.2830816 14.1335715,42.7595911 14.4007145,42.2573896 C14.6683802,41.756007 15.0408643,41.370349 15.5186896,41.1004157 C15.9967762,40.8304824 16.4895007,40.6956522 16.9963405,40.6956522" id="Fill-5" fill="#FFFFFF"></path>
                <path d="M21.7124037,40.7035575 C22.1871738,40.7035575 22.4258016,40.955165 22.4277902,41.4572897 L22.4243102,43.8359758 C22.4292816,44.8778436 22.7897092,45.4004131 23.5073328,45.4061376 C24.2194879,45.3982323 24.5744469,44.8737546 24.5717127,43.8321594 L24.5717127,41.4845494 C24.5764355,40.9668867 24.8150634,40.7035575 25.2875963,40.6956522 C25.7603778,40.7111902 25.9975143,40.9758824 26,41.4886384 L26,43.8359758 C25.9975143,45.915895 25.166791,46.9563998 23.5073328,46.9563998 C21.8379319,46.9694845 21.0022371,45.9295249 21,43.8359758 L21,41.4845494 C21.0022371,40.9690675 21.2398707,40.7087369 21.7124037,40.7035575" id="Fill-7" fill="#FFFFFF"></path>
                <path d="M28.5030736,42.2659062 L28.5030736,45.3864651 L30.0053625,45.3864651 C31.0001744,45.3941168 31.4950953,44.8705166 31.4901251,43.816211 C31.4950953,42.7875935 30.9986049,42.2710985 30.0022235,42.2659062 L28.5030736,42.2659062 Z M27.7497057,40.6956522 L29.9982997,40.6956522 C31.9994332,40.6986582 33,41.742306 33,43.8282352 C32.9979073,45.9081523 32.022976,46.9515269 30.0770371,46.9564459 L27.7497057,46.9564459 C27.2495531,46.9616381 27,46.7003846 27,46.173505 L27,41.4788663 C27,40.962098 27.2495531,40.7005712 27.7497057,40.6956522 L27.7497057,40.6956522 Z" id="Fill-9" fill="#FFFFFF"></path>
                <path d="M38.0225249,45.3815529 L36.9947617,43.1811244 L35.9625458,45.3815529 L38.0225249,45.3815529 Z M34.7506548,46.9565217 C34.6228392,46.9565217 34.4997381,46.9232439 34.3810896,46.8564155 C34.2616553,46.7904053 34.1689366,46.6946634 34.1008381,46.5691896 C34.0335254,46.4445341 34,46.3133322 34,46.1750382 C34,46.039472 34.3740178,45.1887051 35.1217915,43.6227376 C35.8695652,42.0570428 36.2763227,41.2120041 36.3412782,41.0884397 C36.4064955,40.9648753 36.4994762,40.8680423 36.6191723,40.7990317 C36.7393924,40.7302939 36.864065,40.6956522 36.9947617,40.6956522 C37.1246726,40.6956522 37.2488214,40.7302939 37.3679937,40.7990317 C37.4866422,40.8680423 37.579099,40.9648753 37.6453641,41.0884397 C37.7116291,41.2120041 38.1207438,42.0570428 38.8724463,43.6227376 C39.6244107,45.1887051 40,46.039472 40,46.1750382 C40,46.3133322 39.9664746,46.4445341 39.8991619,46.5691896 C39.8310634,46.6946634 39.7378208,46.7904053 39.6173389,46.8564155 C39.4971189,46.9232439 39.3748036,46.9565217 39.2496071,46.9565217 L34.7506548,46.9565217 Z" id="Fill-11" fill="#FFFFFF"></path>
                <path d="M43.2640178,42.4533574 C43.025879,42.5876417 42.8389753,42.7803342 42.7043524,43.0322538 C42.5692066,43.2836275 42.5020259,43.5461915 42.5020259,43.8202188 C42.5020259,44.0912439 42.568161,44.3502598 42.7006927,44.5980853 C42.8327016,44.8459108 43.0185597,45.0391492 43.2569599,45.1769817 C43.4950987,45.3150871 43.7442164,45.3841398 44.0037904,45.3841398 C44.2633643,45.3841398 44.5127434,45.3150871 44.7506208,45.1769817 C44.9892824,45.0391492 45.1746177,44.8459108 45.306888,44.5980853 C45.4394197,44.3502598 45.5055548,44.0912439 45.5055548,43.8202188 C45.5055548,43.5461915 45.4383741,43.2836275 45.3032283,43.0322538 C45.1686054,42.7803342 44.9811789,42.5876417 44.7414717,42.4533574 C44.5017645,42.3188001 44.2557836,42.2519309 44.0037904,42.2519309 C43.7489217,42.2519309 43.502418,42.3188001 43.2640178,42.4533574 M43.9962096,40.6956522 C44.5007189,40.6956522 44.9918965,40.8304824 45.4700039,41.1004157 C45.9486342,41.370349 46.3227029,41.756007 46.5935172,42.2573896 C46.8643315,42.7595911 47,43.2830816 47,43.827861 C47,44.3699111 46.8682525,44.8895805 46.6047575,45.3860503 C46.3412626,45.8830661 45.9713763,46.268724 45.4943145,46.5435702 C45.0172526,46.8186893 44.5182329,46.9565217 43.9962096,46.9565217 C43.4791531,46.9565217 42.9827474,46.8186893 42.5056855,46.5435702 C42.0283623,46.268724 41.658476,45.8830661 41.3955039,45.3860503 C41.1320089,44.8895805 41,44.3699111 41,43.827861 C41,43.2830816 41.1335773,42.7595911 41.4007319,42.2573896 C41.6684094,41.756007 42.0409097,41.370349 42.5184943,41.1004157 C42.9968632,40.8304824 43.4893478,40.6956522 43.9962096,40.6956522" id="Fill-13" fill="#FFFFFF"></path>
                <path d="M53,41.5840642 C52.9810692,41.8683631 52.8834259,42.0955837 52.7073193,42.2649068 L50.2981215,45.395199 L52.3755315,45.395199 C52.7845372,45.4053038 52.9927764,45.6276086 53,46.0604749 C52.9927764,46.6470975 52.7798045,46.943686 52.3613334,46.9488749 L48.6244862,46.9565217 C48.2154805,46.9513328 48.0069922,46.6528326 48,46.0604749 C48.0045013,45.7917428 48.1036391,45.5735345 48.2959366,45.4072155 L50.7195816,42.2649068 L48.6244862,42.2649068 C48.2127405,42.2619027 48.0045013,42.0352282 48,41.5840642 C47.9977759,40.9947106 48.2082569,40.6986683 48.6317098,40.6956522 L52.3790188,40.6956522 C52.7905154,40.6934794 52.99726,40.9895217 53,41.5840642" id="Fill-15" fill="#FFFFFF"></path>
                <path d="M54.9874784,40.6956522 C55.6522829,40.7008314 55.9899061,40.9584299 56,41.4689928 L56,46.1638272 C55.9937348,46.6842034 55.6595923,46.9486166 54.9975723,46.9565217 C54.3327678,46.9458907 54,46.683113 54,46.1673709 L54,41.4730816 C53.997233,40.9573395 54.3265026,40.6986507 54.9874784,40.6956522" id="Fill-17" fill="#FFFFFF"></path>
                <path d="M58.0001753,45.9130435 C58.1678064,45.9130435 58.3308785,45.958428 58.4897422,46.0495631 C58.6489567,46.1399661 58.7738033,46.2691657 58.864282,46.4349656 C58.9551113,46.6007656 59,46.7764476 59,46.9620118 C59,47.1398899 58.9558127,47.3126439 58.8670875,47.4784439 C58.7780116,47.6442438 58.6552692,47.7723453 58.4978082,47.8638464 C58.3403472,47.9549815 58.1741189,48 58.0001753,48 C57.8258811,48 57.6589514,47.9549815 57.5000877,47.8638464 C57.3412239,47.7723453 57.2184815,47.6442438 57.1308083,47.4784439 C57.0434859,47.3126439 57,47.1398899 57,46.9620118 C57,46.7764476 57.0448887,46.6007656 57.1336139,46.4349656 C57.2219884,46.2691657 57.3461336,46.1399661 57.5049974,46.0495631 C57.6642118,45.958428 57.8297387,45.9130435 58.0001753,45.9130435" id="Fill-19" fill="#FFFFFF"></path>
                <path d="M61.8537595,40.6956522 L63.2855006,40.6997567 C63.7599222,40.7074086 63.9980056,40.9659323 64,41.4750545 C63.9980056,42.0022133 63.7586757,42.2645629 63.282509,42.2618301 L61.857499,42.2659293 C60.90716,42.2580041 60.4322397,42.7786041 60.4322397,43.8282759 C60.4322397,44.8670164 60.9084065,45.3892561 61.8609892,45.3941751 L63.282509,45.3941751 C63.7586757,45.4042865 63.9965098,45.6630835 63.9965098,46.1694729 C63.9965098,46.6914393 63.7606701,46.9537889 63.2892401,46.9565217 L61.8609892,46.9565217 C59.9555744,46.9565217 59.0019944,45.9123156 59,43.8241767 C59,41.736311 59.9508377,40.6929247 61.8537595,40.6956522" id="Fill-21" fill="#FFFFFF"></path>
                <path d="M68.2639536,42.4533574 C68.0255327,42.5876417 67.8391355,42.7803342 67.7037166,43.0322538 C67.5693434,43.2836275 67.5018953,43.5461915 67.5018953,43.8202188 C67.5018953,44.0912439 67.5677748,44.3502598 67.7000566,44.5980853 C67.8325999,44.8459108 68.0179513,45.0391492 68.2566337,45.1769817 C68.4950547,45.3150871 68.7439327,45.3841398 69.0040521,45.3841398 C69.2633872,45.3841398 69.5122653,45.3150871 69.7509477,45.1769817 C69.9896301,45.0391492 70.1749815,44.8459108 70.3072633,44.5980853 C70.4392837,44.3502598 70.5054246,44.0912439 70.5054246,43.8202188 C70.5054246,43.5461915 70.4379766,43.2836275 70.3036033,43.0322538 C70.1681844,42.7803342 69.9812644,42.5876417 69.7417977,42.4533574 C69.5015468,42.3188001 69.2560673,42.2519309 69.0040521,42.2519309 C68.7491613,42.2519309 68.5026361,42.3188001 68.2639536,42.4533574 M68.9964707,40.6956522 C69.5005011,40.6956522 69.9914601,40.8304824 70.4698706,41.1004157 C70.9482811,41.370349 71.3229053,41.756007 71.5937432,42.2573896 C71.8645811,42.7595911 72,43.2830816 72,43.827861 C72,44.3699111 71.8685025,44.8895805 71.605246,45.3860503 C71.3412052,45.8830661 70.9712867,46.268724 70.4947061,46.5435702 C70.0176027,46.8186893 69.5182781,46.9565217 68.9964707,46.9565217 C68.4793691,46.9565217 67.9823973,46.8186893 67.5058167,46.5435702 C67.0284519,46.268724 66.6585334,45.8830661 66.3952769,45.3860503 C66.1312361,44.8895805 66,44.3699111 66,43.827861 C66,43.2830816 66.133589,42.7595911 66.4005054,42.2573896 C66.6679448,41.756007 67.0402161,41.370349 67.5186266,41.1004157 C67.9970372,40.8304824 68.4890419,40.6956522 68.9964707,40.6956522" id="Fill-23" fill="#FFFFFF"></path>
                <path d="M73.7459547,40.6956522 C73.9980903,40.700838 74.1845765,40.7677072 74.3041055,40.8951681 C74.4241576,41.0229019 74.9898934,41.6121699 76.0018359,42.6624261 C77.0007008,41.620085 77.5635595,41.031363 77.6883195,40.8968057 C77.812818,40.7625214 77.9993042,40.6956522 78.2464703,40.6956522 C78.7431565,40.6986545 78.9931997,40.9576703 78.9960767,41.4740645 L79,46.1666461 C79,46.6849508 78.7470798,46.9486066 78.2428086,46.9565217 C77.7482148,46.9537924 77.4971254,46.6906825 77.4895404,46.1666461 L77.4895404,43.4018086 C76.9873617,43.9416752 76.6742846,44.277386 76.5510939,44.408668 C76.4271185,44.5404959 76.2416785,44.6062733 75.9945124,44.6062733 C75.7546698,44.6062733 75.570276,44.5383124 75.4413311,44.4026634 C75.3126478,44.2672873 74.9985246,43.9389458 74.4992229,43.4176388 L74.4992229,46.1666461 C74.4963458,46.6827673 74.2468257,46.9436938 73.7496164,46.9486066 C73.2474377,46.951063 72.9981792,46.6906825 73,46.1666461 L73,41.4740645 C73,40.954941 73.2484839,40.6956522 73.7459547,40.6956522" id="Fill-25" fill="#FFFFFF"></path>
                <path d="M65.980573,12.6861513 C67.093142,14.3449626 67.3319077,16.0834624 66.5140362,16.5687926 C65.6964286,17.054371 64.1316559,16.1033225 63.0193508,14.4445112 C61.9070457,12.7854516 61.6680161,11.0472001 62.4858876,10.5616217 C63.303759,10.0760433 64.8682679,11.02734 65.980573,12.6861513" id="Fill-27" fill="#FFBC00"></path>
                <path d="M69.8433842,9.52522892 C70.2114678,11.5307172 69.908609,13.3299267 69.1668334,13.5442796 C68.4248501,13.758372 67.5249981,12.3063463 67.1567068,10.300858 C66.7884155,8.29536973 67.0914821,6.49616021 67.8332576,6.28180737 C68.5752409,6.06771498 69.4753007,7.51974061 69.8433842,9.52522892" id="Fill-29" fill="#FFBC00"></path>
                <path d="M75.9643764,15.1287019 C74.8454839,17.0614668 73.2825864,18.1617994 72.4740173,17.5863595 C71.6652083,17.0111857 71.9167311,14.9781245 73.0356236,13.0450935 C74.1545161,11.1125946 75.7171736,10.012262 76.5259827,10.5874358 C77.3347917,11.1628757 77.0832689,13.1959369 75.9643764,15.1287019" id="Fill-31" fill="#FFBC00"></path>
                <path d="M74,26.0869565 C74,23.2055524 71.7613456,20.8695652 69,20.8695652 C66.2386544,20.8695652 64,23.2055524 64,26.0869565 C64,28.9681022 66.2386544,31.3043478 69,31.3043478 C71.7613456,31.3043478 74,28.9681022 74,26.0869565" id="Fill-33" fill="#FFBC00"></path>
                <g transform="translate(59.000000, 17.739130)">
                    <mask id="mask-2" fill="white">
                        <use xlink:href="#path-1"></use>
                    </mask>
                    <g id="Clip-36"></g>
                    <path d="M18.1808455,0.72446087 C17.4487091,-0.158321739 16.1996864,-0.22406087 15.3921409,0.576547826 C14.5845955,1.37741739 14.5237432,2.74228696 15.2568341,3.62533043 C16.3292659,4.91793913 16.9203682,6.59193913 16.9203682,8.33898261 C16.9203682,12.2087217 14.0407432,15.3568957 10.50105,15.3568957 C6.96111818,15.3568957 4.08173182,12.2087217 4.08173182,8.33898261 C4.08173182,6.59193913 4.67259545,4.91793913 5.74526591,3.62533043 C6.47835682,2.74228696 6.41750455,1.37741739 5.60948182,0.576547826 C4.802175,-0.224582609 3.55339091,-0.158843478 2.82125455,0.72446087 C1.08732273,2.81298261 0.132777273,5.51741739 0.132777273,8.33898261 C0.132777273,14.5888957 4.7838,19.6735043 10.50105,19.6735043 C16.2180614,19.6735043 20.8693227,14.5888957 20.8693227,8.33898261 C20.8693227,5.51741739 19.9147773,2.81298261 18.1808455,0.72446087" id="Fill-35" fill="#FF6633" mask="url(#mask-2)"></path>
                </g>
                <path d="M61.111049,6.26086957 L77.888951,6.26086957 C79.0545828,6.26086957 80,5.32629848 80,4.17378692 C80,3.02127537 79.0545828,2.08695652 77.888951,2.08695652 L61.111049,2.08695652 C59.945162,2.08695652 59,3.02127537 59,4.17378692 C59,5.32629848 59.945162,6.26086957 61.111049,6.26086957" id="Fill-37" fill="#FF6633"></path>
                <path d="M54.9661704,5.27666821 C56.089275,5.27666821 57,4.32882457 57,3.16020115 C57,1.99106608 56.089275,1.04347826 54.9661704,1.04347826 L43.0335838,1.04347826 C41.9104792,1.04347826 41,1.99106608 41,3.16020115 C41,4.32882457 41.9104792,5.27666821 43.0335838,5.27666821 L46.9662933,5.27666821 L46.9662933,8.32486174 L43.0335838,8.32486174 C41.9104792,8.32486174 41,9.27244956 41,10.4413288 C41,11.610208 41.9104792,12.5577959 43.0335838,12.5577959 L46.9662933,12.5577959 L46.9662933,34.4052721 C46.9662933,35.5741513 47.8770183,36.5217391 49.0001229,36.5217391 C50.1232275,36.5217391 51.0339525,35.5741513 51.0339525,34.4052721 L51.0339525,12.5577959 L54.9661704,12.5577959 C56.089275,12.5577959 57,11.610208 57,10.4413288 C57,9.27244956 56.089275,8.32486174 54.9661704,8.32486174 L51.0339525,8.32486174 L51.0339525,5.27666821 L54.9661704,5.27666821 Z" id="Fill-39" fill="#FF6633"></path>
                <path d="M45.9968936,17.7759458 C45.9968936,16.603539 45.0891058,15.6530915 43.9693212,15.6530915 C42.8492915,15.6530915 41.9415038,16.603539 41.9415038,17.7759458 L41.9415038,30.2197773 C41.9415038,30.2403053 41.9417489,30.2610899 41.9424841,30.2818745 C41.9696883,31.2602915 41.7530349,32.4634903 41.2123816,32.7914254 C40.9866601,32.9292198 39.6607606,33.483733 35.7237459,30.9587861 L35.7235008,30.9587861 C34.2483458,29.9767768 32.8918109,28.8438865 31.6690914,27.583979 C34.5537193,23.668515 36.5099725,18.9940274 37.251839,13.9230923 C37.4214364,12.7640288 36.6614338,11.6806623 35.5543935,11.5030949 C34.4453926,11.3252709 33.4126124,12.1215016 33.2430149,13.2803086 C32.6516295,17.3222765 31.1595636,21.070437 28.9645995,24.2756313 C26.7483132,21.0463166 25.2589433,17.2899448 24.6722144,13.2803086 C24.5026169,12.1217582 23.4700819,11.3273237 22.3608358,11.5030949 C21.2537955,11.6806623 20.4937929,12.7640288 20.6633904,13.9230923 C21.3991298,18.9509185 23.3485207,23.637723 26.260843,27.5844922 C23.7759456,30.1466462 20.7528457,32.1660905 17.3449654,33.4429336 C16.290618,33.8378415 15.741877,35.0528439 16.1190598,36.1567384 C16.4156104,37.0245606 17.1959549,37.5652174 18.0282571,37.5652174 C18.2549589,37.5652174 18.4855821,37.5251877 18.7113036,37.4399964 C22.6206239,35.9755785 26.0944315,33.6715645 28.9650897,30.7522229 C30.3618182,32.1717357 31.903881,33.4519146 33.5782886,34.5629939 C33.5885821,34.5699221 33.5993657,34.5755673 33.6096592,34.5822389 C36.3332676,36.3281474 38.6228337,37.1964828 40.5285998,37.1964828 C41.5398126,37.1964828 42.4429438,36.9519427 43.2453458,36.4651719 C45.8226395,34.9014497 46.0312052,31.5820682 45.9968936,30.1905248 L45.9968936,17.7759458 Z" id="Fill-41" fill="#FF6633"></path>
                <path d="M4,3.13043478 C2.89544301,3.13043478 2,4.06965394 2,5.22764399 L2,19.8155808 C2,20.9738243 2.89544301,21.9130435 4,21.9130435 C5.10455699,21.9130435 6,20.9738243 6,19.8155808 L6,5.22764399 C6,4.06965394 5.10455699,3.13043478 4,3.13043478" id="Fill-43" fill="#FF6633"></path>
                <path d="M55,15.6521739 C53.8956848,15.6521739 53,16.602929 53,17.7751419 L53,35.4422494 C53,36.6144623 53.8956848,37.5652174 55,37.5652174 C56.104557,37.5652174 57,36.6144623 57,35.4422494 L57,17.7751419 C57,16.602929 56.104557,15.6521739 55,15.6521739" id="Fill-45" fill="#FF6633"></path>
                <path d="M13,0 C11.895443,0 11,0.943760081 11,2.10760348 L11,35.4576139 C11,36.6214573 11.895443,37.5652174 13,37.5652174 C14.104557,37.5652174 15,36.6214573 15,35.4576139 L15,2.10760348 C15,0.943760081 14.104557,0 13,0" id="Fill-47" fill="#FF6633"></path>
                <g transform="translate(17.000000, 0.000000)">
                    <mask id="mask-4" fill="white">
                        <use xlink:href="#path-3"></use>
                    </mask>
                    <g id="Clip-50"></g>
                    <path d="M4.4963,9.3200133 C4.49955,9.3200133 4.5028,9.32056573 4.50605,9.32056573 L20.8018,9.32056573 C21.94405,9.32056573 22.87005,8.29718977 22.87005,7.03516419 C22.87005,5.77313862 21.94405,4.75003887 20.8018,4.75003887 L4.5108,4.75003887 C4.50905,4.75003887 4.50755,4.74976266 4.5058,4.74976266 C4.3838,4.74976266 4.28455,4.64010537 4.28455,4.50531253 L4.28455,2.54501586 C4.28455,1.28299028 3.35855,0.259614322 2.21605,0.259614322 C1.07405,0.259614322 0.1478,1.28299028 0.1478,2.54501586 L0.1478,4.50531253 C0.1478,7.15669872 2.0978,9.31421279 4.4963,9.3200133" id="Fill-49" fill="#FF6633" mask="url(#mask-4)"></path>
                </g>
                <path d="M7.40765481,29.059281 C9.57490857,26.9733599 10.3347864,23.8053883 9.86799717,21.0610423 C9.76988382,20.6989735 9.36391482,20.8719562 9.34714544,21.3984363 C9.22750723,22.2124416 8.99273601,23.0041099 8.62531153,23.7126633 C7.97856436,24.9599045 6.60873184,25.9513079 5.67915793,26.4762296 C5.1790802,26.7427164 4.88949566,26.2014314 6.03381766,25.4676838 C7.31204435,24.644328 8.38528423,23.1108604 8.49040568,21.7324538 C8.48014382,21.109093 7.96680077,21.4620711 7.76181396,21.6355732 C7.23370385,22.0869903 6.61724167,22.4459422 5.93420257,22.611912 C4.67174409,22.9186575 3.63354469,23.3363093 2.6413985,24.2001835 C1.75462403,24.9723717 0.999251374,26.0261112 0.571256925,27.1738743 C0.143262476,28.3218971 -0.288986889,30.2465237 0.254641148,30.9036498 C0.994746169,31.6241511 3.30466475,31.1864998 3.93664486,31.0181924 C5.24390509,30.6696298 6.43703348,29.9935431 7.40765481,29.059281" id="Fill-51" fill="#FFBC00"></path>
            </g>
        </g>
    </g>
</svg>